<?xml version="1.0"?>
<svg xmlns="http://www.w3.org/2000/svg" id="hand-brain-technology-artificial_intelligence-link" data-name="hand-brain-technology-artificial intelligence-link" viewBox="0 0 64 64" width="512" height="512"><rect x="7" y="43" width="6" height="18" style="fill:#3780ea"/><path d="M35,46h6l7.42-6.68a3.276,3.276,0,0,1,4.51,4.75L40,55,30,58H13V46h4.67a4.024,4.024,0,0,0,2.4-.8l1.86-1.4a4.024,4.024,0,0,1,2.4-.8h7.5A3.128,3.128,0,0,1,35,45.84Z" style="fill:#f0d0b4"/><circle cx="6" cy="34" r="3" style="fill:#f6cc4f"/><circle cx="6" cy="20" r="3" style="fill:#f6cc4f"/><circle cx="6" cy="6" r="3" style="fill:#f6cc4f"/><path d="M19.41,9A5,5,0,0,1,29,11V29a5,5,0,0,1-9.59,2A5.106,5.106,0,0,1,19,29a4.662,4.662,0,0,1,.13-1.13A4.662,4.662,0,0,1,18,28a5,5,0,0,1-5-5,5.031,5.031,0,0,1,2.71-4.44A4.946,4.946,0,0,1,15,16a5,5,0,0,1,4.01-4.9A.34.34,0,0,1,19,11,5.106,5.106,0,0,1,19.41,9Z" style="fill:#ec455a"/><path d="M48.29,18.56A5.031,5.031,0,0,1,51,23a5,5,0,0,1-5,5,4.662,4.662,0,0,1-1.13-.13A4.662,4.662,0,0,1,45,29a5.106,5.106,0,0,1-.41,2A5,5,0,0,1,35,29V11a5,5,0,0,1,9.59-2A5.106,5.106,0,0,1,45,11a.34.34,0,0,1-.01.1A5,5,0,0,1,49,16,4.946,4.946,0,0,1,48.29,18.56Z" style="fill:#ec455a"/><circle cx="58" cy="34" r="3" style="fill:#f6cc4f"/><circle cx="58" cy="20" r="3" style="fill:#f6cc4f"/><circle cx="58" cy="6" r="3" style="fill:#f6cc4f"/><path d="M53.95,39.09a4.281,4.281,0,0,0-6.2-.51L40.62,45H35.87a4.14,4.14,0,0,0-4.04-3h-7.5a5.075,5.075,0,0,0-3,1l-1.86,1.4a3.018,3.018,0,0,1-1.8.6H14V43a1,1,0,0,0-1-1H7a1,1,0,0,0-1,1V61a1,1,0,0,0,1,1h6a1,1,0,0,0,1-1V59H30a.967.967,0,0,0,.29-.04l10-3a1.068,1.068,0,0,0,.36-.2L53.63,44.78A4.261,4.261,0,0,0,53.95,39.09ZM12,60H8V44h4ZM52.28,43.31,39.51,54.1,29.85,57H14V47h3.67a5.075,5.075,0,0,0,3-1l1.86-1.4a3.018,3.018,0,0,1,1.8-.6h7.5A2.127,2.127,0,0,1,34,45.89v.14A2,2,0,0,1,32,48H24v2h8a4.034,4.034,0,0,0,3.88-3H41a.971.971,0,0,0,.67-.26l7.42-6.67a2.269,2.269,0,0,1,3.3.27A2.262,2.262,0,0,1,52.28,43.31Z"/><path d="M9.858,35H12a1,1,0,0,0,.832-.445L14.535,32h4.277A5.995,5.995,0,0,0,30,29V11A5.995,5.995,0,0,0,18.812,8H14.535l-1.7-2.555A1,1,0,0,0,12,5H9.858a4,4,0,1,0,0,2h1.607l1.7,2.555A1,1,0,0,0,14,10h4.09c-.019.115-.04.23-.053.348a5.947,5.947,0,0,0-3.61,7.845,5.99,5.99,0,0,0-.882.807H9.858a4,4,0,1,0,0,2h2.5A5.969,5.969,0,0,0,18,29a6,6,0,0,0,.09,1H14a1,1,0,0,0-.832.445L11.465,33H9.858a4,4,0,1,0,0,2ZM6,8A2,2,0,1,1,8,6,2,2,0,0,1,6,8ZM6,22a2,2,0,1,1,2-2A2,2,0,0,1,6,22Zm12,5a4,4,0,0,1-1.822-7.557A3.909,3.909,0,0,1,18,19V17a5.98,5.98,0,0,0-1.78.281A3.918,3.918,0,0,1,16,16a4,4,0,0,1,2.185-3.548A6.005,6.005,0,0,0,24,17V15a4,4,0,1,1,4-4V29a4,4,0,1,1-4-4V23a6,6,0,0,0-5.635,3.959C18.241,26.97,18.133,27,18,27ZM4,34a2,2,0,1,1,2,2A2,2,0,0,1,4,34Z"/><path d="M58,24a4,4,0,1,0-3.858-5H50.457a5.963,5.963,0,0,0-.884-.809,5.945,5.945,0,0,0-3.61-7.843c-.013-.118-.034-.233-.053-.348H50a1,1,0,0,0,.832-.445L52.535,7h1.607a4,4,0,1,0,0-2H52a1,1,0,0,0-.832.445L49.465,8H45.188A5.995,5.995,0,0,0,34,11V29a5.995,5.995,0,0,0,11.188,3h4.277l1.7,2.555A1,1,0,0,0,52,35h2.142a4,4,0,1,0,0-2H52.535l-1.7-2.555A1,1,0,0,0,50,30H45.91A6,6,0,0,0,46,29a5.972,5.972,0,0,0,5.645-8h2.5A4,4,0,0,0,58,24Zm0-6a2,2,0,1,1-2,2A2,2,0,0,1,58,18ZM58,4a2,2,0,1,1-2,2A2,2,0,0,1,58,4Zm0,28a2,2,0,1,1-2,2A2,2,0,0,1,58,32ZM46,27c-.133,0-.241-.03-.365-.041A6,6,0,0,0,40,23v2a4,4,0,1,1-4,4V11a4,4,0,1,1,4,4v2a6.005,6.005,0,0,0,5.815-4.548A4,4,0,0,1,48,16a3.909,3.909,0,0,1-.22,1.281A5.963,5.963,0,0,0,46,17v2a3.923,3.923,0,0,1,1.832.448A4,4,0,0,1,46,27Z"/></svg>
